{
    "asset" : {
        "generator" : "Khronos glTF Blender I/O v1.1.46",
        "version" : "2.0"
    },
    "scene" : 0,
    "scenes" : [
        {
            "name" : "Scene",
            "nodes" : [
                0,
                1,
                2,
                3,
                4,
                5,
                6
            ]
        }
    ],
    "nodes" : [
        {
            "mesh" : 0,
            "name" : "Cube",
            "scale" : [
                0.10000000149011612,
                0.05000000074505806,
                0.10000000149011612
            ],
            "translation" : [
                -0.0005813343450427055,
                2.6000049114227295,
                0.00026024895487353206
            ]
        },
        {
            "name" : "Light",
            "rotation" : [
                0.16907575726509094,
                0.7558803558349609,
                -0.27217137813568115,
                0.570947527885437
            ],
            "translation" : [
                4.076245307922363,
                5.903861999511719,
                -1.0054539442062378
            ]
        },
        {
            "name" : "Camera",
            "rotation" : [
                0.483536034822464,
                0.33687159419059753,
                -0.20870360732078552,
                0.7804827094078064
            ],
            "translation" : [
                6.762112617492676,
                4.216292858123779,
                4.098864555358887
            ]
        },
        {
            "mesh" : 1,
            "name" : "Torus",
            "rotation" : [
                0,
                0,
                -0.7071067690849304,
                0.7071067690849304
            ],
            "scale" : [
                0.020000014454126358,
                0.020000014454126358,
                0.020000014454126358
            ],
            "translation" : [
                0.09999998658895493,
                2.5999999046325684,
                0.009999999776482582
            ]
        },
        {
            "mesh" : 2,
            "name" : "Cylinder",
            "rotation" : [
                0,
                0,
                -0.7071067690849304,
                0.7071067690849304
            ],
            "scale" : [
                0.0020000000949949026,
                0.00800000037997961,
                0.0020000000949949026
            ],
            "translation" : [
                0.09519471973180771,
                2.6248281002044678,
                -0.05225757509469986
            ]
        },
        {
            "mesh" : 3,
            "name" : "Cube.006",
            "scale" : [
                0.029999999329447746,
                0.0010000001639127731,
                0.0010000001639127731
            ],
            "translation" : [
                0.02599974535405636,
                2.604257106781006,
                0.09936302900314331
            ]
        },
        {
            "mesh" : 4,
            "name" : "Cylinder.001",
            "scale" : [
                0.009999999776482582,
                0.03000001423060894,
                0.009999999776482582
            ],
            "translation" : [
                0,
                2.6700000762939453,
                0
            ]
        }
    ],
    "materials" : [
        {
            "doubleSided" : true,
            "emissiveFactor" : [
                0,
                0,
                0
            ],
            "name" : "Material",
            "pbrMetallicRoughness" : {
                "baseColorFactor" : [
                    0.2956920564174652,
                    0.2956920564174652,
                    0.2956920564174652,
                    1
                ],
                "metallicFactor" : 0,
                "roughnessFactor" : 0.4000000059604645
            }
        },
        {
            "doubleSided" : true,
            "emissiveFactor" : [
                0,
                0,
                0
            ],
            "name" : "Material.009",
            "pbrMetallicRoughness" : {
                "baseColorFactor" : [
                    0,
                    0,
                    0,
                    1
                ],
                "metallicFactor" : 0,
                "roughnessFactor" : 0.5
            }
        },
        {
            "doubleSided" : true,
            "emissiveFactor" : [
                0,
                0,
                0
            ],
            "name" : "Material.008",
            "pbrMetallicRoughness" : {
                "baseColorFactor" : [
                    0.7105535864830017,
                    0.7105535864830017,
                    0.7105535864830017,
                    1
                ],
                "metallicFactor" : 0,
                "roughnessFactor" : 0.5
            }
        },
        {
            "doubleSided" : true,
            "emissiveFactor" : [
                0,
                0,
                0
            ],
            "name" : "Material.007",
            "pbrMetallicRoughness" : {
                "baseColorFactor" : [
                    0.8000000715255737,
                    0.009501032531261444,
                    0.011330433189868927,
                    1
                ],
                "metallicFactor" : 0,
                "roughnessFactor" : 0.5
            }
        },
        {
            "doubleSided" : true,
            "emissiveFactor" : [
                0,
                0,
                0
            ],
            "name" : "Material.006",
            "pbrMetallicRoughness" : {
                "baseColorFactor" : [
                    0.004895604681223631,
                    0.004895604681223631,
                    0.004895604681223631,
                    1
                ],
                "metallicFactor" : 0,
                "roughnessFactor" : 0.5
            }
        },
        {
            "doubleSided" : true,
            "emissiveFactor" : [
                0,
                0,
                0
            ],
            "name" : "Material.001",
            "pbrMetallicRoughness" : {
                "baseColorFactor" : [
                    0.0015474521787837148,
                    0.0015474521787837148,
                    0.0015474521787837148,
                    1
                ],
                "metallicFactor" : 0,
                "roughnessFactor" : 0.5
            }
        },
        {
            "doubleSided" : true,
            "emissiveFactor" : [
                0,
                0,
                0
            ],
            "name" : "Material.002",
            "pbrMetallicRoughness" : {
                "baseColorFactor" : [
                    0.0025794445537030697,
                    0.0025794445537030697,
                    0.0025794445537030697,
                    1
                ],
                "metallicFactor" : 0,
                "roughnessFactor" : 0.5
            }
        },
        {
            "doubleSided" : true,
            "emissiveFactor" : [
                0,
                0,
                0
            ],
            "name" : "Material.003",
            "pbrMetallicRoughness" : {
                "baseColorFactor" : [
                    0.00637019332498312,
                    0.00637019332498312,
                    0.00637019332498312,
                    1
                ],
                "metallicFactor" : 0,
                "roughnessFactor" : 0.5
            }
        },
        {
            "doubleSided" : true,
            "emissiveFactor" : [
                0,
                0,
                0
            ],
            "name" : "Material.004",
            "pbrMetallicRoughness" : {
                "baseColorFactor" : [
                    0.003095438936725259,
                    0.003095438936725259,
                    0.003095438936725259,
                    1
                ],
                "metallicFactor" : 0,
                "roughnessFactor" : 0.5
            }
        },
        {
            "doubleSided" : true,
            "emissiveFactor" : [
                0,
                0,
                0
            ],
            "name" : "Material.005",
            "pbrMetallicRoughness" : {
                "baseColorFactor" : [
                    0.004895604681223631,
                    0.004895604681223631,
                    0.004895604681223631,
                    1
                ],
                "metallicFactor" : 0,
                "roughnessFactor" : 0.5
            }
        },
        {
            "doubleSided" : true,
            "emissiveFactor" : [
                0,
                0,
                0
            ],
            "name" : "Material.010",
            "pbrMetallicRoughness" : {
                "baseColorFactor" : [
                    0,
                    0,
                    0,
                    1
                ],
                "metallicFactor" : 0,
                "roughnessFactor" : 0.5
            }
        }
    ],
    "meshes" : [
        {
            "name" : "Cube",
            "primitives" : [
                {
                    "attributes" : {
                        "POSITION" : 0,
                        "NORMAL" : 1,
                        "TEXCOORD_0" : 2
                    },
                    "indices" : 3,
                    "material" : 0
                }
            ]
        },
        {
            "name" : "Torus",
            "primitives" : [
                {
                    "attributes" : {
                        "POSITION" : 4,
                        "NORMAL" : 5,
                        "TEXCOORD_0" : 6
                    },
                    "indices" : 7,
                    "material" : 1
                },
                {
                    "attributes" : {
                        "POSITION" : 8,
                        "NORMAL" : 9,
                        "TEXCOORD_0" : 10
                    },
                    "indices" : 11,
                    "material" : 2
                }
            ]
        },
        {
            "name" : "Cylinder",
            "primitives" : [
                {
                    "attributes" : {
                        "POSITION" : 12,
                        "NORMAL" : 13,
                        "TEXCOORD_0" : 14
                    },
                    "indices" : 15,
                    "material" : 3
                }
            ]
        },
        {
            "name" : "Cube.008",
            "primitives" : [
                {
                    "attributes" : {
                        "POSITION" : 16,
                        "NORMAL" : 17,
                        "TEXCOORD_0" : 18
                    },
                    "indices" : 3,
                    "material" : 4
                },
                {
                    "attributes" : {
                        "POSITION" : 19,
                        "NORMAL" : 20,
                        "TEXCOORD_0" : 21
                    },
                    "indices" : 3,
                    "material" : 5
                },
                {
                    "attributes" : {
                        "POSITION" : 22,
                        "NORMAL" : 23,
                        "TEXCOORD_0" : 24
                    },
                    "indices" : 3,
                    "material" : 6
                },
                {
                    "attributes" : {
                        "POSITION" : 25,
                        "NORMAL" : 26,
                        "TEXCOORD_0" : 27
                    },
                    "indices" : 3,
                    "material" : 7
                },
                {
                    "attributes" : {
                        "POSITION" : 28,
                        "NORMAL" : 29,
                        "TEXCOORD_0" : 30
                    },
                    "indices" : 3,
                    "material" : 8
                },
                {
                    "attributes" : {
                        "POSITION" : 31,
                        "NORMAL" : 32,
                        "TEXCOORD_0" : 33
                    },
                    "indices" : 3,
                    "material" : 9
                }
            ]
        },
        {
            "name" : "Cylinder.001",
            "primitives" : [
                {
                    "attributes" : {
                        "POSITION" : 34,
                        "NORMAL" : 35,
                        "TEXCOORD_0" : 36
                    },
                    "indices" : 15,
                    "material" : 10
                }
            ]
        }
    ],
    "accessors" : [
        {
            "bufferView" : 0,
            "componentType" : 5126,
            "count" : 24,
            "max" : [
                1,
                1,
                1
            ],
            "min" : [
                -1,
                -1,
                -1
            ],
            "type" : "VEC3"
        },
        {
            "bufferView" : 1,
            "componentType" : 5126,
            "count" : 24,
            "type" : "VEC3"
        },
        {
            "bufferView" : 2,
            "componentType" : 5126,
            "count" : 24,
            "type" : "VEC2"
        },
        {
            "bufferView" : 3,
            "componentType" : 5123,
            "count" : 36,
            "type" : "SCALAR"
        },
        {
            "bufferView" : 4,
            "componentType" : 5126,
            "count" : 2304,
            "max" : [
                1.25,
                0.25,
                1.25
            ],
            "min" : [
                -1.25,
                -0.25,
                -1.25
            ],
            "type" : "VEC3"
        },
        {
            "bufferView" : 5,
            "componentType" : 5126,
            "count" : 2304,
            "type" : "VEC3"
        },
        {
            "bufferView" : 6,
            "componentType" : 5126,
            "count" : 2304,
            "type" : "VEC2"
        },
        {
            "bufferView" : 7,
            "componentType" : 5123,
            "count" : 3456,
            "type" : "SCALAR"
        },
        {
            "bufferView" : 8,
            "componentType" : 5126,
            "count" : 1984,
            "max" : [
                0.9999992251396179,
                0.40000030398368835,
                0.9999995231628418
            ],
            "min" : [
                -0.9999992251396179,
                -0.599998950958252,
                -0.9999992847442627
            ],
            "type" : "VEC3"
        },
        {
            "bufferView" : 9,
            "componentType" : 5126,
            "count" : 1984,
            "type" : "VEC3"
        },
        {
            "bufferView" : 10,
            "componentType" : 5126,
            "count" : 1984,
            "type" : "VEC2"
        },
        {
            "bufferView" : 11,
            "componentType" : 5123,
            "count" : 2880,
            "type" : "SCALAR"
        },
        {
            "bufferView" : 12,
            "componentType" : 5126,
            "count" : 192,
            "max" : [
                1,
                1,
                1
            ],
            "min" : [
                -1,
                -1,
                -1
            ],
            "type" : "VEC3"
        },
        {
            "bufferView" : 13,
            "componentType" : 5126,
            "count" : 192,
            "type" : "VEC3"
        },
        {
            "bufferView" : 14,
            "componentType" : 5126,
            "count" : 192,
            "type" : "VEC2"
        },
        {
            "bufferView" : 15,
            "componentType" : 5123,
            "count" : 372,
            "type" : "SCALAR"
        },
        {
            "bufferView" : 16,
            "componentType" : 5126,
            "count" : 24,
            "max" : [
                1,
                1,
                1
            ],
            "min" : [
                -1,
                -1,
                -1
            ],
            "type" : "VEC3"
        },
        {
            "bufferView" : 17,
            "componentType" : 5126,
            "count" : 24,
            "type" : "VEC3"
        },
        {
            "bufferView" : 18,
            "componentType" : 5126,
            "count" : 24,
            "type" : "VEC2"
        },
        {
            "bufferView" : 19,
            "componentType" : 5126,
            "count" : 24,
            "max" : [
                0.9999998807907104,
                18.8354434967041,
                1
            ],
            "min" : [
                -1,
                16.8354434967041,
                -1
            ],
            "type" : "VEC3"
        },
        {
            "bufferView" : 20,
            "componentType" : 5126,
            "count" : 24,
            "type" : "VEC3"
        },
        {
            "bufferView" : 21,
            "componentType" : 5126,
            "count" : 24,
            "type" : "VEC2"
        },
        {
            "bufferView" : 22,
            "componentType" : 5126,
            "count" : 24,
            "max" : [
                0.9999998807907104,
                15.304258346557617,
                1
            ],
            "min" : [
                -1,
                13.304258346557617,
                -1
            ],
            "type" : "VEC3"
        },
        {
            "bufferView" : 23,
            "componentType" : 5126,
            "count" : 24,
            "type" : "VEC3"
        },
        {
            "bufferView" : 24,
            "componentType" : 5126,
            "count" : 24,
            "type" : "VEC2"
        },
        {
            "bufferView" : 25,
            "componentType" : 5126,
            "count" : 24,
            "max" : [
                0.9999998807907104,
                11.652414321899414,
                1
            ],
            "min" : [
                -1,
                9.652414321899414,
                -1
            ],
            "type" : "VEC3"
        },
        {
            "bufferView" : 26,
            "componentType" : 5126,
            "count" : 24,
            "type" : "VEC3"
        },
        {
            "bufferView" : 27,
            "componentType" : 5126,
            "count" : 24,
            "type" : "VEC2"
        },
        {
            "bufferView" : 28,
            "componentType" : 5126,
            "count" : 24,
            "max" : [
                0.9999998807907104,
                7.836269855499268,
                1
            ],
            "min" : [
                -1,
                5.836269855499268,
                -1
            ],
            "type" : "VEC3"
        },
        {
            "bufferView" : 29,
            "componentType" : 5126,
            "count" : 24,
            "type" : "VEC3"
        },
        {
            "bufferView" : 30,
            "componentType" : 5126,
            "count" : 24,
            "type" : "VEC2"
        },
        {
            "bufferView" : 31,
            "componentType" : 5126,
            "count" : 24,
            "max" : [
                0.9999998807907104,
                4.360990524291992,
                1
            ],
            "min" : [
                -1,
                2.360990524291992,
                -1
            ],
            "type" : "VEC3"
        },
        {
            "bufferView" : 32,
            "componentType" : 5126,
            "count" : 24,
            "type" : "VEC3"
        },
        {
            "bufferView" : 33,
            "componentType" : 5126,
            "count" : 24,
            "type" : "VEC2"
        },
        {
            "bufferView" : 34,
            "componentType" : 5126,
            "count" : 192,
            "max" : [
                1,
                1,
                1
            ],
            "min" : [
                -1,
                -1,
                -1
            ],
            "type" : "VEC3"
        },
        {
            "bufferView" : 35,
            "componentType" : 5126,
            "count" : 192,
            "type" : "VEC3"
        },
        {
            "bufferView" : 36,
            "componentType" : 5126,
            "count" : 192,
            "type" : "VEC2"
        }
    ],
    "bufferViews" : [
        {
            "buffer" : 0,
            "byteLength" : 288,
            "byteOffset" : 0
        },
        {
            "buffer" : 0,
            "byteLength" : 288,
            "byteOffset" : 288
        },
        {
            "buffer" : 0,
            "byteLength" : 192,
            "byteOffset" : 576
        },
        {
            "buffer" : 0,
            "byteLength" : 72,
            "byteOffset" : 768
        },
        {
            "buffer" : 0,
            "byteLength" : 27648,
            "byteOffset" : 840
        },
        {
            "buffer" : 0,
            "byteLength" : 27648,
            "byteOffset" : 28488
        },
        {
            "buffer" : 0,
            "byteLength" : 18432,
            "byteOffset" : 56136
        },
        {
            "buffer" : 0,
            "byteLength" : 6912,
            "byteOffset" : 74568
        },
        {
            "buffer" : 0,
            "byteLength" : 23808,
            "byteOffset" : 81480
        },
        {
            "buffer" : 0,
            "byteLength" : 23808,
            "byteOffset" : 105288
        },
        {
            "buffer" : 0,
            "byteLength" : 15872,
            "byteOffset" : 129096
        },
        {
            "buffer" : 0,
            "byteLength" : 5760,
            "byteOffset" : 144968
        },
        {
            "buffer" : 0,
            "byteLength" : 2304,
            "byteOffset" : 150728
        },
        {
            "buffer" : 0,
            "byteLength" : 2304,
            "byteOffset" : 153032
        },
        {
            "buffer" : 0,
            "byteLength" : 1536,
            "byteOffset" : 155336
        },
        {
            "buffer" : 0,
            "byteLength" : 744,
            "byteOffset" : 156872
        },
        {
            "buffer" : 0,
            "byteLength" : 288,
            "byteOffset" : 157616
        },
        {
            "buffer" : 0,
            "byteLength" : 288,
            "byteOffset" : 157904
        },
        {
            "buffer" : 0,
            "byteLength" : 192,
            "byteOffset" : 158192
        },
        {
            "buffer" : 0,
            "byteLength" : 288,
            "byteOffset" : 158384
        },
        {
            "buffer" : 0,
            "byteLength" : 288,
            "byteOffset" : 158672
        },
        {
            "buffer" : 0,
            "byteLength" : 192,
            "byteOffset" : 158960
        },
        {
            "buffer" : 0,
            "byteLength" : 288,
            "byteOffset" : 159152
        },
        {
            "buffer" : 0,
            "byteLength" : 288,
            "byteOffset" : 159440
        },
        {
            "buffer" : 0,
            "byteLength" : 192,
            "byteOffset" : 159728
        },
        {
            "buffer" : 0,
            "byteLength" : 288,
            "byteOffset" : 159920
        },
        {
            "buffer" : 0,
            "byteLength" : 288,
            "byteOffset" : 160208
        },
        {
            "buffer" : 0,
            "byteLength" : 192,
            "byteOffset" : 160496
        },
        {
            "buffer" : 0,
            "byteLength" : 288,
            "byteOffset" : 160688
        },
        {
            "buffer" : 0,
            "byteLength" : 288,
            "byteOffset" : 160976
        },
        {
            "buffer" : 0,
            "byteLength" : 192,
            "byteOffset" : 161264
        },
        {
            "buffer" : 0,
            "byteLength" : 288,
            "byteOffset" : 161456
        },
        {
            "buffer" : 0,
            "byteLength" : 288,
            "byteOffset" : 161744
        },
        {
            "buffer" : 0,
            "byteLength" : 192,
            "byteOffset" : 162032
        },
        {
            "buffer" : 0,
            "byteLength" : 2304,
            "byteOffset" : 162224
        },
        {
            "buffer" : 0,
            "byteLength" : 2304,
            "byteOffset" : 164528
        },
        {
            "buffer" : 0,
            "byteLength" : 1536,
            "byteOffset" : 166832
        }
    ],
    "buffers" : [
        {
            "byteLength" : 168368,
            "uri" : "Beamer_2.bin"
        }
    ]
}
