{
    "asset" : {
        "generator" : "Khronos glTF Blender I/O v1.1.46",
        "version" : "2.0"
    },
    "scene" : 0,
    "scenes" : [
        {
            "name" : "Scene",
            "nodes" : [
                0,
                1,
                2,
                3,
                4,
                5,
                6,
                7,
                8,
                9,
                10,
                11,
                12,
                13
            ]
        }
    ],
    "nodes" : [
        {
            "mesh" : 0,
            "name" : "Cylinder.001",
            "rotation" : [
                0.9961947202682495,
                0.08715573698282242,
                0,
                -1.6162896088189882e-07
            ],
            "scale" : [
                0.01858268491923809,
                0.09171002358198166,
                0.017532827332615852
            ],
            "translation" : [
                0.9323633909225464,
                -0.07288431376218796,
                -0.3722933232784271
            ]
        },
        {
            "mesh" : 1,
            "name" : "Cylinder",
            "rotation" : [
                0,
                0,
                -0.08715573698282242,
                0.9961947202682495
            ],
            "scale" : [
                0.01858268491923809,
                0.09171002358198166,
                0.017532827332615852
            ],
            "translation" : [
                -0.9315341711044312,
                -0.07288431376218796,
                0.36490750312805176
            ]
        },
        {
            "mesh" : 2,
            "name" : "Cube.009",
            "rotation" : [
                -0.04603077471256256,
                0,
                0,
                0.9989400506019592
            ],
            "scale" : [
                0.2954770028591156,
                0.1752317100763321,
                0.07053279876708984
            ],
            "translation" : [
                0.0032854871824383736,
                0.4058941602706909,
                -0.158059224486351
            ]
        },
        {
            "mesh" : 3,
            "name" : "Cube.008",
            "rotation" : [
                -0.04603077471256256,
                0,
                0,
                0.9989400506019592
            ],
            "scale" : [
                0.26119372248649597,
                0.1752317100763321,
                0.07053279876708984
            ],
            "translation" : [
                0.5557504892349243,
                0.4058941602706909,
                -0.158059224486351
            ]
        },
        {
            "mesh" : 4,
            "name" : "Cube.007",
            "rotation" : [
                -0.04603077471256256,
                0,
                0,
                0.9989400506019592
            ],
            "scale" : [
                0.26119372248649597,
                0.1752317100763321,
                0.07053279876708984
            ],
            "translation" : [
                -0.5525116920471191,
                0.4058941602706909,
                -0.158059224486351
            ]
        },
        {
            "mesh" : 5,
            "name" : "Cube.005",
            "scale" : [
                0.2768937051296234,
                -0.04190841689705849,
                0.33395886421203613
            ],
            "translation" : [
                0.0005144528113305569,
                0.20373505353927612,
                0.10220243781805038
            ]
        },
        {
            "mesh" : 6,
            "name" : "Cube.006",
            "scale" : [
                0.2693383991718292,
                -0.04190841689705849,
                0.33395886421203613
            ],
            "translation" : [
                0.5528656244277954,
                0.20178984105587006,
                0.10284139215946198
            ]
        },
        {
            "mesh" : 7,
            "name" : "Cube.002",
            "scale" : [
                0.2693383991718292,
                -0.04190841689705849,
                0.33395886421203613
            ],
            "translation" : [
                -0.553716778755188,
                0.20178984105587006,
                0.10284139215946198
            ]
        },
        {
            "mesh" : 8,
            "name" : "Cube.003",
            "scale" : [
                0.09027113765478134,
                0.18139882385730743,
                0.4208182692527771
            ],
            "translation" : [
                -0.9089879393577576,
                0.22866055369377136,
                0.007639168296009302
            ]
        },
        {
            "mesh" : 9,
            "name" : "Cube.004",
            "rotation" : [
                0,
                0.7071067690849304,
                0,
                0.7071067690849304
            ],
            "scale" : [
                0.09027113765478134,
                0.20977963507175446,
                0.8237949013710022
            ],
            "translation" : [
                0.002647538436576724,
                0.26895684003829956,
                -0.32243967056274414
            ]
        },
        {
            "mesh" : 10,
            "name" : "Cube.001",
            "scale" : [
                0.09027113765478134,
                0.18139882385730743,
                0.4208182692527771
            ],
            "translation" : [
                0.9116074442863464,
                0.22866055369377136,
                0.007639168296009302
            ]
        },
        {
            "mesh" : 11,
            "name" : "Cube"
        },
        {
            "name" : "Lamp",
            "rotation" : [
                0.16907575726509094,
                0.7558803558349609,
                -0.27217137813568115,
                0.570947527885437
            ],
            "translation" : [
                4.076245307922363,
                5.903861999511719,
                -1.0054539442062378
            ]
        },
        {
            "name" : "Camera",
            "rotation" : [
                0.483536034822464,
                0.33687159419059753,
                -0.20870360732078552,
                0.7804827094078064
            ],
            "translation" : [
                7.481131553649902,
                5.34366512298584,
                6.5076398849487305
            ]
        }
    ],
    "materials" : [
        {
            "doubleSided" : true,
            "name" : "Material",
            "pbrMetallicRoughness" : {}
        }
    ],
    "meshes" : [
        {
            "name" : "Cylinder.001",
            "primitives" : [
                {
                    "attributes" : {
                        "POSITION" : 0,
                        "NORMAL" : 1
                    },
                    "indices" : 2
                }
            ]
        },
        {
            "name" : "Cylinder",
            "primitives" : [
                {
                    "attributes" : {
                        "POSITION" : 3,
                        "NORMAL" : 4
                    },
                    "indices" : 5
                }
            ]
        },
        {
            "name" : "Cube.014",
            "primitives" : [
                {
                    "attributes" : {
                        "POSITION" : 6,
                        "NORMAL" : 7
                    },
                    "indices" : 8
                }
            ]
        },
        {
            "name" : "Cube.013",
            "primitives" : [
                {
                    "attributes" : {
                        "POSITION" : 9,
                        "NORMAL" : 10
                    },
                    "indices" : 8
                }
            ]
        },
        {
            "name" : "Cube.012",
            "primitives" : [
                {
                    "attributes" : {
                        "POSITION" : 11,
                        "NORMAL" : 12
                    },
                    "indices" : 8
                }
            ]
        },
        {
            "name" : "Cube.011",
            "primitives" : [
                {
                    "attributes" : {
                        "POSITION" : 13,
                        "NORMAL" : 14
                    },
                    "indices" : 15
                }
            ]
        },
        {
            "name" : "Cube.010",
            "primitives" : [
                {
                    "attributes" : {
                        "POSITION" : 16,
                        "NORMAL" : 17
                    },
                    "indices" : 15
                }
            ]
        },
        {
            "name" : "Cube.009",
            "primitives" : [
                {
                    "attributes" : {
                        "POSITION" : 18,
                        "NORMAL" : 19
                    },
                    "indices" : 15
                }
            ]
        },
        {
            "name" : "Cube.005",
            "primitives" : [
                {
                    "attributes" : {
                        "POSITION" : 20,
                        "NORMAL" : 21
                    },
                    "indices" : 22
                }
            ]
        },
        {
            "name" : "Cube.004",
            "primitives" : [
                {
                    "attributes" : {
                        "POSITION" : 23,
                        "NORMAL" : 24
                    },
                    "indices" : 25
                }
            ]
        },
        {
            "name" : "Cube.001",
            "primitives" : [
                {
                    "attributes" : {
                        "POSITION" : 26,
                        "NORMAL" : 27
                    },
                    "indices" : 22
                }
            ]
        },
        {
            "name" : "Cube",
            "primitives" : [
                {
                    "attributes" : {
                        "POSITION" : 28,
                        "NORMAL" : 29
                    },
                    "indices" : 30,
                    "material" : 0
                }
            ]
        }
    ],
    "accessors" : [
        {
            "bufferView" : 0,
            "componentType" : 5126,
            "count" : 384,
            "max" : [
                1,
                1,
                1
            ],
            "min" : [
                -1,
                -1,
                -43.11499786376953
            ],
            "type" : "VEC3"
        },
        {
            "bufferView" : 1,
            "componentType" : 5126,
            "count" : 384,
            "type" : "VEC3"
        },
        {
            "bufferView" : 2,
            "componentType" : 5123,
            "count" : 744,
            "type" : "SCALAR"
        },
        {
            "bufferView" : 3,
            "componentType" : 5126,
            "count" : 384,
            "max" : [
                1,
                1,
                1
            ],
            "min" : [
                -1,
                -1,
                -43.11499786376953
            ],
            "type" : "VEC3"
        },
        {
            "bufferView" : 4,
            "componentType" : 5126,
            "count" : 384,
            "type" : "VEC3"
        },
        {
            "bufferView" : 5,
            "componentType" : 5123,
            "count" : 744,
            "type" : "SCALAR"
        },
        {
            "bufferView" : 6,
            "componentType" : 5126,
            "count" : 96,
            "max" : [
                1,
                1,
                1
            ],
            "min" : [
                -1,
                -1,
                -1
            ],
            "type" : "VEC3"
        },
        {
            "bufferView" : 7,
            "componentType" : 5126,
            "count" : 96,
            "type" : "VEC3"
        },
        {
            "bufferView" : 8,
            "componentType" : 5123,
            "count" : 564,
            "type" : "SCALAR"
        },
        {
            "bufferView" : 9,
            "componentType" : 5126,
            "count" : 96,
            "max" : [
                1,
                1,
                1
            ],
            "min" : [
                -1,
                -1,
                -1
            ],
            "type" : "VEC3"
        },
        {
            "bufferView" : 10,
            "componentType" : 5126,
            "count" : 96,
            "type" : "VEC3"
        },
        {
            "bufferView" : 11,
            "componentType" : 5126,
            "count" : 96,
            "max" : [
                1,
                1,
                1
            ],
            "min" : [
                -1,
                -1,
                -1
            ],
            "type" : "VEC3"
        },
        {
            "bufferView" : 12,
            "componentType" : 5126,
            "count" : 96,
            "type" : "VEC3"
        },
        {
            "bufferView" : 13,
            "componentType" : 5126,
            "count" : 56,
            "max" : [
                1,
                1,
                1
            ],
            "min" : [
                -1,
                -1,
                -1
            ],
            "type" : "VEC3"
        },
        {
            "bufferView" : 14,
            "componentType" : 5126,
            "count" : 56,
            "type" : "VEC3"
        },
        {
            "bufferView" : 15,
            "componentType" : 5123,
            "count" : 324,
            "type" : "SCALAR"
        },
        {
            "bufferView" : 16,
            "componentType" : 5126,
            "count" : 56,
            "max" : [
                1,
                1,
                1
            ],
            "min" : [
                -1,
                -1,
                -1
            ],
            "type" : "VEC3"
        },
        {
            "bufferView" : 17,
            "componentType" : 5126,
            "count" : 56,
            "type" : "VEC3"
        },
        {
            "bufferView" : 18,
            "componentType" : 5126,
            "count" : 56,
            "max" : [
                1,
                1,
                1
            ],
            "min" : [
                -1,
                -1,
                -1
            ],
            "type" : "VEC3"
        },
        {
            "bufferView" : 19,
            "componentType" : 5126,
            "count" : 56,
            "type" : "VEC3"
        },
        {
            "bufferView" : 20,
            "componentType" : 5126,
            "count" : 24,
            "max" : [
                1,
                1,
                1
            ],
            "min" : [
                -1,
                -1,
                -1
            ],
            "type" : "VEC3"
        },
        {
            "bufferView" : 21,
            "componentType" : 5126,
            "count" : 24,
            "type" : "VEC3"
        },
        {
            "bufferView" : 22,
            "componentType" : 5123,
            "count" : 132,
            "type" : "SCALAR"
        },
        {
            "bufferView" : 23,
            "componentType" : 5126,
            "count" : 284,
            "max" : [
                1,
                1,
                1
            ],
            "min" : [
                -1,
                -1,
                -1
            ],
            "type" : "VEC3"
        },
        {
            "bufferView" : 24,
            "componentType" : 5126,
            "count" : 284,
            "type" : "VEC3"
        },
        {
            "bufferView" : 25,
            "componentType" : 5123,
            "count" : 612,
            "type" : "SCALAR"
        },
        {
            "bufferView" : 26,
            "componentType" : 5126,
            "count" : 24,
            "max" : [
                1,
                1,
                1
            ],
            "min" : [
                -1,
                -1,
                -1
            ],
            "type" : "VEC3"
        },
        {
            "bufferView" : 27,
            "componentType" : 5126,
            "count" : 24,
            "type" : "VEC3"
        },
        {
            "bufferView" : 28,
            "componentType" : 5126,
            "count" : 48,
            "max" : [
                1.0000003576278687,
                0.15341432392597198,
                0.4250691533088684
            ],
            "min" : [
                -1.0000003576278687,
                0.002047136425971985,
                -0.4151040017604828
            ],
            "type" : "VEC3"
        },
        {
            "bufferView" : 29,
            "componentType" : 5126,
            "count" : 48,
            "type" : "VEC3"
        },
        {
            "bufferView" : 30,
            "componentType" : 5123,
            "count" : 168,
            "type" : "SCALAR"
        }
    ],
    "bufferViews" : [
        {
            "buffer" : 0,
            "byteLength" : 4608,
            "byteOffset" : 0
        },
        {
            "buffer" : 0,
            "byteLength" : 4608,
            "byteOffset" : 4608
        },
        {
            "buffer" : 0,
            "byteLength" : 1488,
            "byteOffset" : 9216
        },
        {
            "buffer" : 0,
            "byteLength" : 4608,
            "byteOffset" : 10704
        },
        {
            "buffer" : 0,
            "byteLength" : 4608,
            "byteOffset" : 15312
        },
        {
            "buffer" : 0,
            "byteLength" : 1488,
            "byteOffset" : 19920
        },
        {
            "buffer" : 0,
            "byteLength" : 1152,
            "byteOffset" : 21408
        },
        {
            "buffer" : 0,
            "byteLength" : 1152,
            "byteOffset" : 22560
        },
        {
            "buffer" : 0,
            "byteLength" : 1128,
            "byteOffset" : 23712
        },
        {
            "buffer" : 0,
            "byteLength" : 1152,
            "byteOffset" : 24840
        },
        {
            "buffer" : 0,
            "byteLength" : 1152,
            "byteOffset" : 25992
        },
        {
            "buffer" : 0,
            "byteLength" : 1152,
            "byteOffset" : 27144
        },
        {
            "buffer" : 0,
            "byteLength" : 1152,
            "byteOffset" : 28296
        },
        {
            "buffer" : 0,
            "byteLength" : 672,
            "byteOffset" : 29448
        },
        {
            "buffer" : 0,
            "byteLength" : 672,
            "byteOffset" : 30120
        },
        {
            "buffer" : 0,
            "byteLength" : 648,
            "byteOffset" : 30792
        },
        {
            "buffer" : 0,
            "byteLength" : 672,
            "byteOffset" : 31440
        },
        {
            "buffer" : 0,
            "byteLength" : 672,
            "byteOffset" : 32112
        },
        {
            "buffer" : 0,
            "byteLength" : 672,
            "byteOffset" : 32784
        },
        {
            "buffer" : 0,
            "byteLength" : 672,
            "byteOffset" : 33456
        },
        {
            "buffer" : 0,
            "byteLength" : 288,
            "byteOffset" : 34128
        },
        {
            "buffer" : 0,
            "byteLength" : 288,
            "byteOffset" : 34416
        },
        {
            "buffer" : 0,
            "byteLength" : 264,
            "byteOffset" : 34704
        },
        {
            "buffer" : 0,
            "byteLength" : 3408,
            "byteOffset" : 34968
        },
        {
            "buffer" : 0,
            "byteLength" : 3408,
            "byteOffset" : 38376
        },
        {
            "buffer" : 0,
            "byteLength" : 1224,
            "byteOffset" : 41784
        },
        {
            "buffer" : 0,
            "byteLength" : 288,
            "byteOffset" : 43008
        },
        {
            "buffer" : 0,
            "byteLength" : 288,
            "byteOffset" : 43296
        },
        {
            "buffer" : 0,
            "byteLength" : 576,
            "byteOffset" : 43584
        },
        {
            "buffer" : 0,
            "byteLength" : 576,
            "byteOffset" : 44160
        },
        {
            "buffer" : 0,
            "byteLength" : 336,
            "byteOffset" : 44736
        }
    ],
    "buffers" : [
        {
            "byteLength" : 45072,
            "uri" : "sofa.bin"
        }
    ]
}
